<svg xmlns="http://www.w3.org/2000/svg" xmlns:xlink="http://www.w3.org/1999/xlink" width="500" zoomAndPan="magnify" viewBox="0 0 375 374.999991" height="500" preserveAspectRatio="xMidYMid meet" version="1.0"><defs><clipPath id="5ce6e86a2f"><path d="M 124.253906 112.339844 L 275.753906 112.339844 L 275.753906 318.589844 L 124.253906 318.589844 Z M 124.253906 112.339844 " clip-rule="nonzero"/></clipPath><clipPath id="f5b4be00aa"><path d="M 152.730469 171.832031 L 247.230469 171.832031 L 247.230469 271.582031 L 152.730469 271.582031 Z M 152.730469 171.832031 " clip-rule="nonzero"/></clipPath></defs><path stroke-linecap="round" transform="matrix(0.749614, 0, 0, 0.748888, 74.762006, 65.100553)" fill="none" stroke-linejoin="miter" d="M 5.00219 195.306463 L 5.00219 64.998732 C 5.00219 31.861072 31.864966 4.998339 65.001802 4.998339 L 269.179742 4.998339 C 285.094177 4.998339 300.352026 11.320209 311.607815 22.571261 C 322.858394 33.827529 329.179354 49.084518 329.179354 64.998732 L 329.179354 192.802752 " stroke="#000000" stroke-width="10" stroke-opacity="1" stroke-miterlimit="4"/><path stroke-linecap="round" transform="matrix(0.749614, 0, 0, 0.748888, 74.762006, 65.100553)" fill="none" stroke-linejoin="round" d="M 344.181862 175.302854 L 329.179354 195.306463 L 314.182056 175.302854 " stroke="#000000" stroke-width="10" stroke-opacity="1" stroke-miterlimit="4"/><g clip-path="url(#5ce6e86a2f)"><path fill="#d9d9d9" d="M 267.789062 112.507812 L 132.1875 112.507812 C 127.816406 112.507812 124.238281 116.09375 124.238281 120.476562 L 124.238281 310.402344 C 124.238281 314.785156 127.816406 318.371094 132.1875 318.371094 L 267.789062 318.371094 C 272.164062 318.371094 275.742188 314.785156 275.742188 310.402344 L 275.742188 120.476562 C 275.742188 116.09375 272.164062 112.507812 267.789062 112.507812 Z M 135.484375 126.226562 C 133.875 126.226562 132.566406 124.921875 132.566406 123.304688 C 132.566406 121.691406 133.875 120.386719 135.484375 120.386719 C 137.09375 120.386719 138.398438 121.691406 138.398438 123.304688 C 138.398438 124.921875 137.09375 126.226562 135.484375 126.226562 Z M 144.066406 126.226562 C 142.457031 126.226562 141.152344 124.921875 141.152344 123.304688 C 141.152344 121.691406 142.457031 120.386719 144.066406 120.386719 C 145.675781 120.386719 146.980469 121.691406 146.980469 123.304688 C 146.980469 124.921875 145.675781 126.226562 144.066406 126.226562 Z M 152.648438 126.226562 C 151.039062 126.226562 149.734375 124.921875 149.734375 123.304688 C 149.734375 121.691406 151.039062 120.386719 152.648438 120.386719 C 154.261719 120.386719 155.566406 121.691406 155.566406 123.304688 C 155.566406 124.921875 154.261719 126.226562 152.648438 126.226562 Z M 161.234375 126.226562 C 159.625 126.226562 158.320312 124.921875 158.320312 123.304688 C 158.320312 121.691406 159.625 120.386719 161.234375 120.386719 C 162.84375 120.386719 164.148438 121.691406 164.148438 123.304688 C 164.148438 124.921875 162.84375 126.226562 161.234375 126.226562 Z M 169.816406 126.226562 C 168.207031 126.226562 166.902344 124.921875 166.902344 123.304688 C 166.902344 121.691406 168.207031 120.386719 169.816406 120.386719 C 171.429688 120.386719 172.734375 121.691406 172.734375 123.304688 C 172.734375 124.921875 171.429688 126.226562 169.816406 126.226562 Z M 178.402344 126.226562 C 176.792969 126.226562 175.488281 124.921875 175.488281 123.304688 C 175.488281 121.691406 176.792969 120.386719 178.402344 120.386719 C 180.011719 120.386719 181.316406 121.691406 181.316406 123.304688 C 181.316406 124.921875 180.011719 126.226562 178.402344 126.226562 Z M 186.984375 126.226562 C 185.375 126.226562 184.070312 124.921875 184.070312 123.304688 C 184.070312 121.691406 185.375 120.386719 186.984375 120.386719 C 188.59375 120.386719 189.902344 121.691406 189.902344 123.304688 C 189.902344 124.921875 188.59375 126.226562 186.984375 126.226562 Z M 195.570312 126.226562 C 193.960938 126.226562 192.65625 124.921875 192.65625 123.304688 C 192.65625 121.691406 193.960938 120.386719 195.570312 120.386719 C 197.179688 120.386719 198.484375 121.691406 198.484375 123.304688 C 198.484375 124.921875 197.179688 126.226562 195.570312 126.226562 Z M 204.152344 126.226562 C 202.542969 126.226562 201.238281 124.921875 201.238281 123.304688 C 201.238281 121.691406 202.542969 120.386719 204.152344 120.386719 C 205.761719 120.386719 207.066406 121.691406 207.066406 123.304688 C 207.070312 124.921875 205.761719 126.226562 204.152344 126.226562 Z M 212.738281 126.226562 C 211.128906 126.226562 209.820312 124.921875 209.820312 123.304688 C 209.820312 121.691406 211.128906 120.386719 212.738281 120.386719 C 214.347656 120.386719 215.652344 121.691406 215.652344 123.304688 C 215.652344 124.921875 214.347656 126.226562 212.738281 126.226562 Z M 221.320312 126.226562 C 219.710938 126.226562 218.40625 124.921875 218.40625 123.304688 C 218.40625 121.691406 219.710938 120.386719 221.320312 120.386719 C 222.929688 120.386719 224.234375 121.691406 224.234375 123.304688 C 224.234375 124.921875 222.929688 126.226562 221.320312 126.226562 Z M 229.90625 126.226562 C 228.292969 126.226562 226.988281 124.921875 226.988281 123.304688 C 226.988281 121.691406 228.292969 120.386719 229.90625 120.386719 C 231.515625 120.386719 232.820312 121.691406 232.820312 123.304688 C 232.820312 124.921875 231.515625 126.226562 229.90625 126.226562 Z M 238.488281 126.226562 C 236.878906 126.226562 235.574219 124.921875 235.574219 123.304688 C 235.574219 121.691406 236.878906 120.386719 238.488281 120.386719 C 240.097656 120.386719 241.402344 121.691406 241.402344 123.304688 C 241.402344 124.921875 240.097656 126.226562 238.488281 126.226562 Z M 247.074219 126.226562 C 245.460938 126.226562 244.15625 124.921875 244.15625 123.304688 C 244.15625 121.691406 245.460938 120.386719 247.074219 120.386719 C 248.683594 120.386719 249.988281 121.691406 249.988281 123.304688 C 249.988281 124.921875 248.683594 126.226562 247.074219 126.226562 Z M 255.65625 126.226562 C 254.046875 126.226562 252.742188 124.921875 252.742188 123.304688 C 252.742188 121.691406 254.046875 120.386719 255.65625 120.386719 C 257.265625 120.386719 258.570312 121.691406 258.570312 123.304688 C 258.570312 124.921875 257.265625 126.226562 255.65625 126.226562 Z M 264.238281 126.226562 C 262.628906 126.226562 261.324219 124.921875 261.324219 123.304688 C 261.324219 121.691406 262.628906 120.386719 264.238281 120.386719 C 265.851562 120.386719 267.15625 121.691406 267.15625 123.304688 C 267.15625 124.921875 265.851562 126.226562 264.238281 126.226562 Z M 264.238281 126.226562 " fill-opacity="1" fill-rule="nonzero"/></g><g clip-path="url(#f5b4be00aa)"><path stroke-linecap="butt" transform="matrix(0.491069, 0, 0, 0.509919, 82.907423, 113.087388)" fill="none" stroke-linejoin="miter" d="M 324.449084 213.013448 C 324.464993 215.740596 324.33772 218.475405 324.075218 221.194892 C 323.812717 223.914379 323.407034 226.618546 322.866122 229.307391 C 322.325211 231.988575 321.649071 234.639118 320.845658 237.259018 C 320.034291 239.878919 319.087696 242.452856 318.021782 244.98083 C 316.947913 247.516465 315.746772 249.983155 314.426311 252.403882 C 313.097896 254.816948 311.658117 257.161069 310.091064 259.443907 C 308.531966 261.719083 306.853549 263.917655 305.063769 266.039621 C 303.281942 268.153926 301.388752 270.183966 299.392152 272.12208 C 297.403507 274.060193 295.311452 275.89872 293.131896 277.63766 C 290.952341 279.376599 288.685285 281.008292 286.338684 282.532737 C 283.992082 284.057182 281.565935 285.459058 279.076151 286.753688 C 276.586367 288.048317 274.032946 289.220378 271.423843 290.26987 C 268.81474 291.319362 266.15791 292.238625 263.453352 293.03532 C 260.748795 293.832015 258.012419 294.498481 255.23627 295.034718 C 252.468075 295.570955 249.676017 295.969302 246.860095 296.237421 C 244.044173 296.505539 241.228252 296.643429 238.396421 296.643429 C 235.572544 296.643429 232.756622 296.505539 229.9407 296.237421 C 227.124778 295.969302 224.33272 295.570955 221.564526 295.034718 C 218.788377 294.498481 216.052001 293.832015 213.347443 293.03532 C 210.642885 292.238625 207.986055 291.319362 205.376952 290.26987 C 202.759895 289.220378 200.214429 288.048317 197.724645 286.753688 C 195.226906 285.459058 192.808714 284.057182 190.462112 282.532737 C 188.11551 281.008292 185.848455 279.376599 183.668899 277.63766 C 181.489344 275.89872 179.397289 274.060193 177.408644 272.12208 C 175.412044 270.183966 173.518853 268.153926 171.737027 266.039621 C 169.947246 263.917655 168.268829 261.719083 166.709732 259.443907 C 165.142679 257.161069 163.7029 254.816948 162.374485 252.403882 C 161.054024 249.983155 159.852882 247.516465 158.779014 244.98083 C 157.705145 242.452856 156.766505 239.878919 155.955137 237.259018 C 155.14377 234.639118 154.475585 231.988575 153.934674 229.307391 C 153.393762 226.618546 152.988078 223.914379 152.725577 221.194892 C 152.463076 218.475405 152.335803 215.740596 152.351712 213.013448 C 152.335803 210.27864 152.463076 207.543832 152.725577 204.824344 C 152.988078 202.104857 153.393762 199.400691 153.934674 196.719506 C 154.475585 194.030661 155.14377 191.380118 155.955137 188.760218 C 156.766505 186.140317 157.705145 183.56638 158.779014 181.038406 C 159.852882 178.502771 161.054024 176.036081 162.374485 173.615355 C 163.7029 171.202288 165.142679 168.858167 166.709732 166.57533 C 168.268829 164.300153 169.947246 162.101582 171.737027 159.979615 C 173.518853 157.86531 175.412044 155.83527 177.408644 153.897156 C 179.397289 151.959043 181.489344 150.120516 183.668899 148.381577 C 185.848455 146.642637 188.11551 145.010944 190.462112 143.486499 C 192.808714 141.969715 195.226906 140.560178 197.724645 139.265549 C 200.214429 137.970919 202.759895 136.798859 205.376952 135.749366 C 207.986055 134.699874 210.642885 133.780611 213.347443 132.983916 C 216.052001 132.187221 218.788377 131.520755 221.564526 130.984518 C 224.33272 130.455942 227.124778 130.049934 229.9407 129.781815 C 232.756622 129.513697 235.572544 129.375807 238.396421 129.375807 C 241.228252 129.375807 244.044173 129.513697 246.860095 129.781815 C 249.676017 130.049934 252.468075 130.455942 255.23627 130.984518 C 258.012419 131.520755 260.748795 132.187221 263.453352 132.983916 C 266.15791 133.780611 268.81474 134.699874 271.423843 135.749366 C 274.032946 136.798859 276.586367 137.970919 279.076151 139.265549 C 281.565935 140.560178 283.992082 141.969715 286.338684 143.486499 C 288.685285 145.010944 290.952341 146.642637 293.131896 148.381577 C 295.311452 150.120516 297.403507 151.959043 299.392152 153.897156 C 301.388752 155.83527 303.281942 157.86531 305.063769 159.979615 C 306.853549 162.101582 308.531966 164.300153 310.091064 166.57533 C 311.658117 168.858167 313.097896 171.202288 314.426311 173.615355 C 315.746772 176.036081 316.947913 178.502771 318.021782 181.038406 C 319.087696 183.56638 320.034291 186.140317 320.845658 188.760218 C 321.649071 191.380118 322.325211 194.030661 322.866122 196.719506 C 323.407034 199.400691 323.812717 202.104857 324.075218 204.824344 C 324.33772 207.543832 324.464993 210.27864 324.449084 213.013448 Z M 324.449084 213.013448 " stroke="#ff0000" stroke-width="20" stroke-opacity="1" stroke-miterlimit="4"/><path stroke-linecap="butt" transform="matrix(0.0945, 0, 0, 0.0949111, 152.729687, 174.250916)" fill="none" stroke-linejoin="miter" d="M 166.840287 166.840623 L 833.176293 833.171629 " stroke="#ff0000" stroke-width="100" stroke-opacity="1" stroke-miterlimit="4"/></g></svg>